# xmcd
#
# Track frame offsets:
#	150
#	10100
#	20363
#	28293
#	38777
#	49968
#	57735
#	62709
#	71764
#	82538
#	93432
#	104340
#	112629
#	122699
#	133711
#	142819
#	152235
#	163066
#	173294
#	182849
#	194581
#	204989
#	213285
#	223894
#	239442
#	249595
#	259374
#	271054
#	281060
#	292000
#	304604
#	315429
#
# Disc length: 4312 seconds
#
# Revision: 1
# Processed by: cddbd v1.5.1PL0 Copyright (c) Steve Scherf et al.
# Submitted via: audiograbber 1.82.02
#
DISCID=d110d620
DTITLE=Hank Snow - The Hank Snow Collection CD 3
DYEAR=1900
DGENRE=
TTITLE0=Waiting For A Train
TTITLE1=The Wreck Of Number Nine
TTITLE2=Pan America
TTITLE3=Big Wheels
TTITLE4=Ghost Train
TTITLE5=Chattanooga Choo Choo
TTITLE6=One More Ride
TTITLE7=Wreck of Old 97
TTITLE8=Crazy Train Of Love
TTITLE9=Any Old Time
TTITLE10=Blue Yodel
TTITLE11=Travelin' Blues
TTITLE12=Never No More Blues
TTITLE13=Ninety Miles An Hour
TTITLE14=My Memories Of You
TTITLE15=The Wishing Well
TTITLE16=I Stepped Over The Line
TTITLE17=Ninety Days
TTITLE18=The Wedding Picture
TTITLE19=I've Cried A Mile
TTITLE20=Listen
TTITLE21=Friend
TTITLE22=Today Is A Long Time Ago
TTITLE23=Black Diamond
TTITLE24=Ancient History
TTITLE25=Your Loosing Your Baby
TTITLE26=You're The Reason
TTITLE27=More Like Heaven
TTITLE28=I Went To Your Wedding
TTITLE29=Faded Petal
TTITLE30=Blue Roses
TTITLE31=Human
EXTD=
EXTT0=
EXTT1=
EXTT2=
EXTT3=
EXTT4=
EXTT5=
EXTT6=
EXTT7=
EXTT8=
EXTT9=
EXTT10=
EXTT11=
EXTT12=
EXTT13=
EXTT14=
EXTT15=
EXTT16=
EXTT17=
EXTT18=
EXTT19=
EXTT20=
EXTT21=
EXTT22=
EXTT23=
EXTT24=
EXTT25=
EXTT26=
EXTT27=
EXTT28=
EXTT29=
EXTT30=
EXTT31=
PLAYORDER=
